<svg width="1280" height="730" viewBox="0 0 1280 730" fill="none" xmlns="http://www.w3.org/2000/svg">
<g clip-path="url(#clip0_3091_4753)">
<rect width="1280" height="730" fill="white"/>
<rect width="1280" height="730" fill="url(#paint0_radial_3091_4753)"/>
<rect x="-416" y="227.456" width="778.912" height="778.912" transform="rotate(-35.1519 -416 227.456)" fill="#111540"/>
<g style="mix-blend-mode:multiply">
<path d="M653.647 396.144L476.371 399.744L774.507 800.036L948.471 796.504L653.647 396.144Z" fill="url(#paint1_linear_3091_4753)"/>
</g>
<rect x="416" y="-11.918" width="778.912" height="778.912" transform="rotate(-36.0226 416 -11.918)" fill="url(#paint2_linear_3091_4753)" fill-opacity="0.26"/>
<mask id="mask0_3091_4753" style="mask-type:alpha" maskUnits="userSpaceOnUse" x="416" y="-470" width="1089" height="1089">
<rect x="416" y="-11.918" width="778.912" height="778.912" transform="rotate(-36.0226 416 -11.918)" fill="#121212"/>
</mask>
<g mask="url(#mask0_3091_4753)">
<path d="M1056.52 264.912C1059.57 262.52 1060.96 261.413 1060.69 261.59C1069.47 254.416 1076.37 248.526 1081.39 243.92C1086.5 239.314 1090.8 234.487 1094.29 229.438C1097.79 224.39 1099.54 219.474 1099.54 214.691C1099.54 211.059 1098.68 208.225 1096.98 206.188C1095.28 204.15 1092.73 203.132 1089.32 203.132C1085.91 203.132 1083.23 204.416 1081.25 206.985C1079.37 209.465 1078.43 213.008 1078.43 217.614H1056.25C1056.43 210.085 1058.05 203.796 1061.09 198.748C1064.23 193.699 1068.31 189.979 1073.32 187.587C1078.43 185.196 1084.08 184 1090.26 184C1100.92 184 1108.95 186.701 1114.32 192.104C1119.79 197.507 1122.52 204.549 1122.52 213.229C1122.52 222.707 1119.25 231.52 1112.71 239.668C1106.17 247.729 1097.83 255.612 1087.71 263.318H1124V281.785H1056.52V264.912Z" fill="url(#paint3_linear_3091_4753)"/>
<path d="M818.267 280.153C811.638 280.153 806.258 278.096 802.126 273.984C798.022 269.843 795.971 264.341 795.971 257.477V256.201C795.971 251.606 796.86 247.508 798.639 243.906C800.447 240.275 802.972 237.453 806.215 235.439C809.457 233.426 813.073 232.419 817.061 232.419C823.403 232.419 828.295 234.418 831.739 238.418C835.211 242.417 836.947 248.075 836.947 255.392V259.562H806.516C806.832 263.362 808.109 266.369 810.347 268.581C812.614 270.793 815.454 271.899 818.869 271.899C823.661 271.899 827.564 269.985 830.577 266.156L836.215 271.474C834.35 274.225 831.854 276.366 828.726 277.898C825.627 279.401 822.14 280.153 818.267 280.153ZM817.018 240.715C814.149 240.715 811.825 241.708 810.045 243.693C808.295 245.678 807.176 248.444 806.688 251.989H826.617V251.223C826.387 247.763 825.455 245.154 823.819 243.395C822.183 241.608 819.916 240.715 817.018 240.715Z" fill="#1B2055"/>
<path d="M857.859 248.415L866.725 233.27H878.347L864.1 255.945L878.82 279.302H867.285L857.988 263.561L848.734 279.302H837.112L851.833 255.945L837.629 233.27H849.164L857.859 248.415Z" fill="#1B2055"/>
<path d="M922.286 256.754C922.286 263.873 920.65 269.559 917.379 273.814C914.108 278.04 909.718 280.153 904.208 280.153C899.101 280.153 895.012 278.493 891.941 275.175V297H881.482V233.27H891.123L891.554 237.95C894.624 234.262 898.799 232.419 904.079 232.419C909.761 232.419 914.208 234.518 917.422 238.715C920.665 242.885 922.286 248.685 922.286 256.116V256.754ZM911.87 255.86C911.87 251.266 910.937 247.621 909.072 244.927C907.236 242.232 904.596 240.885 901.152 240.885C896.877 240.885 893.806 242.629 891.941 246.118V266.539C893.835 270.112 896.934 271.899 901.238 271.899C904.567 271.899 907.164 270.58 909.029 267.943C910.923 265.277 911.87 261.249 911.87 255.86Z" fill="#1B2055"/>
<path d="M938.334 279.302H927.875V213.955H938.334V279.302Z" fill="#1B2055"/>
<path d="M956.921 279.302H946.462V233.27H956.921V279.302ZM945.816 221.315C945.816 219.727 946.319 218.408 947.323 217.359C948.356 216.309 949.819 215.784 951.713 215.784C953.607 215.784 955.07 216.309 956.103 217.359C957.136 218.408 957.653 219.727 957.653 221.315C957.653 222.875 957.136 224.18 956.103 225.229C955.07 226.25 953.607 226.761 951.713 226.761C949.819 226.761 948.356 226.25 947.323 225.229C946.319 224.18 945.816 222.875 945.816 221.315Z" fill="#1B2055"/>
<path d="M983.515 271.899C986.126 271.899 988.292 271.148 990.014 269.644C991.736 268.141 992.654 266.283 992.769 264.071H1002.63C1002.51 266.936 1001.61 269.616 999.914 272.112C998.221 274.579 995.925 276.536 993.027 277.983C990.129 279.429 987.001 280.153 983.644 280.153C977.13 280.153 971.965 278.068 968.148 273.899C964.332 269.729 962.424 263.972 962.424 256.626V255.562C962.424 248.557 964.318 242.955 968.105 238.758C971.893 234.532 977.058 232.419 983.601 232.419C989.139 232.419 993.644 234.021 997.116 237.226C1000.62 240.403 1002.45 244.586 1002.63 249.777H992.769C992.654 247.139 991.736 244.969 990.014 243.267C988.321 241.566 986.154 240.715 983.515 240.715C980.129 240.715 977.517 241.934 975.681 244.374C973.844 246.784 972.912 250.457 972.883 255.392V257.052C972.883 262.043 973.787 265.773 975.595 268.24C977.431 270.68 980.071 271.899 983.515 271.899Z" fill="#1B2055"/>
<path d="M1017.68 279.302H1007.22V233.27H1017.68V279.302ZM1006.58 221.315C1006.58 219.727 1007.08 218.408 1008.08 217.359C1009.12 216.309 1010.58 215.784 1012.48 215.784C1014.37 215.784 1015.83 216.309 1016.87 217.359C1017.9 218.408 1018.41 219.727 1018.41 221.315C1018.41 222.875 1017.9 224.18 1016.87 225.229C1015.83 226.25 1014.37 226.761 1012.48 226.761C1010.58 226.761 1009.12 226.25 1008.08 225.229C1007.08 224.18 1006.58 222.875 1006.58 221.315Z" fill="#1B2055"/>
<path d="M1038.25 222.081V233.27H1046.47V240.928H1038.25V266.624C1038.25 268.382 1038.59 269.659 1039.28 270.453C1040 271.218 1041.26 271.601 1043.07 271.601C1044.28 271.601 1045.5 271.46 1046.73 271.176V279.174C1044.35 279.826 1042.05 280.153 1039.84 280.153C1031.81 280.153 1027.79 275.771 1027.79 267.007V240.928H1020.13V233.27H1027.79V222.081H1038.25Z" fill="#1B2055"/>
<path d="M775.869 184.913V274.764V278.395H796.341V274.764C785.261 273.81 783.214 265.083 783.214 261.15V190.982H806.17C817.924 190.982 820.25 201.854 819.944 207.602H823.617V184.913H775.869Z" fill="#1A237E"/>
<path d="M771.748 184.913V274.764V278.395H751.276V274.764C762.356 273.81 764.403 265.083 764.403 261.15V190.982H741.447C729.693 190.982 727.367 201.854 727.673 207.602H724V184.913H771.748Z" fill="#42A5F5"/>
</g>
<rect x="134.905" y="729.64" width="206.796" height="206.796" transform="rotate(145.118 134.905 729.64)" fill="#181E54"/>
<path d="M1161.37 742.51L1309.63 621.49L1290.36 760.398L1161.37 742.51Z" fill="#111540"/>
<g style="mix-blend-mode:multiply" opacity="0.8">
<path d="M590.892 502.303L488.881 506.036L664.245 733.663L764.351 730L590.892 502.303Z" fill="url(#paint4_linear_3091_4753)"/>
</g>
<g filter="url(#filter0_f_3091_4753)">
<path d="M-2.34389 534.514L116.535 756.698L-36.3773 558.599L-2.34389 534.514Z" fill="#060A23" style="mix-blend-mode:multiply"/>
</g>
<path d="M341 961L-181 227H-257L263 961H341Z" fill="#171D56"/>
<rect width="1280" height="6" fill="url(#paint5_linear_3091_4753)"/>
<path d="M52.4046 16H-1V6H65L52.4046 16Z" fill="#0937B4"/>
</g>
<defs>
<filter id="filter0_f_3091_4753" x="-76.3773" y="494.514" width="232.913" height="302.184" filterUnits="userSpaceOnUse" color-interpolation-filters="sRGB">
<feFlood flood-opacity="0" result="BackgroundImageFix"/>
<feBlend mode="normal" in="SourceGraphic" in2="BackgroundImageFix" result="shape"/>
<feGaussianBlur stdDeviation="20" result="effect1_foregroundBlur_3091_4753"/>
</filter>
<radialGradient id="paint0_radial_3091_4753" cx="0" cy="0" r="1" gradientUnits="userSpaceOnUse" gradientTransform="translate(583 464) scale(445 799.407)">
<stop stop-color="white"/>
<stop offset="1" stop-color="#F0F3F8"/>
</radialGradient>
<linearGradient id="paint1_linear_3091_4753" x1="577.056" y1="444.391" x2="841.611" y2="688.492" gradientUnits="userSpaceOnUse">
<stop stop-color="#BFD7FC" stop-opacity="0.53"/>
<stop offset="1" stop-color="#F4F9FC" stop-opacity="0.37"/>
</linearGradient>
<linearGradient id="paint2_linear_3091_4753" x1="805.456" y1="-11.918" x2="805.456" y2="766.994" gradientUnits="userSpaceOnUse">
<stop stop-color="#DBE6FD"/>
<stop offset="1" stop-color="#7C91BC" stop-opacity="0.71"/>
</linearGradient>
<linearGradient id="paint3_linear_3091_4753" x1="1051.28" y1="236.902" x2="1156.48" y2="236.902" gradientUnits="userSpaceOnUse">
<stop stop-color="#397AF9"/>
<stop offset="1" stop-color="#2A99F3" stop-opacity="0"/>
</linearGradient>
<linearGradient id="paint4_linear_3091_4753" x1="793.545" y1="603.931" x2="530.927" y2="564.512" gradientUnits="userSpaceOnUse">
<stop stop-color="#C2DEFF" stop-opacity="0.31"/>
<stop offset="1" stop-color="#F4F9FC" stop-opacity="0.37"/>
</linearGradient>
<linearGradient id="paint5_linear_3091_4753" x1="437" y1="2.99935" x2="1307" y2="2.99935" gradientUnits="userSpaceOnUse">
<stop stop-color="#1B7EF1"/>
<stop offset="1" stop-color="#1B7EF1" stop-opacity="0.4"/>
</linearGradient>
<clipPath id="clip0_3091_4753">
<rect width="1280" height="730" fill="white"/>
</clipPath>
</defs>
</svg>
