<svg width="1280" height="730" viewBox="0 0 1280 730" fill="none" xmlns="http://www.w3.org/2000/svg">
<g clip-path="url(#clip0_3091_4784)">
<rect width="1280" height="730" fill="white"/>
<rect width="1280" height="730" fill="url(#paint0_radial_3091_4784)"/>
<path opacity="0.8" d="M532 3.61264V-262L155 117.447V378L532 3.61264Z" fill="url(#paint1_linear_3091_4784)"/>
<path opacity="0.6" d="M1280 554.834V261L863 680.763V969L1280 554.834Z" fill="url(#paint2_linear_3091_4784)"/>
<rect width="1280" height="6" fill="url(#paint3_linear_3091_4784)"/>
<path d="M52.4046 16H-1V6H65L52.4046 16Z" fill="#055E9F"/>
<path d="M1190 731L1281 633V731H1190Z" fill="#111540"/>
<path d="M1202.12 19L1194 6H1216.99L1222 19H1202.12Z" fill="#055E9F"/>
<path d="M1220.29 26L1208 6H1281V26H1220.29Z" fill="#1B7EF1"/>
<line y1="94" x2="976" y2="94" stroke="url(#paint4_linear_3091_4784)" stroke-width="2"/>
<path d="M130.444 697.197C131.281 696.541 131.663 696.237 131.589 696.286C134.005 694.318 135.902 692.702 137.282 691.438C138.687 690.175 139.87 688.85 140.831 687.465C141.792 686.08 142.272 684.732 142.272 683.42C142.272 682.423 142.038 681.646 141.57 681.087C141.102 680.528 140.399 680.249 139.463 680.249C138.527 680.249 137.787 680.601 137.245 681.306C136.728 681.986 136.469 682.958 136.469 684.221H130.37C130.419 682.156 130.862 680.431 131.7 679.046C132.563 677.661 133.684 676.64 135.064 675.984C136.469 675.328 138.021 675 139.722 675C142.654 675 144.86 675.741 146.339 677.223C147.842 678.706 148.593 680.637 148.593 683.019C148.593 685.619 147.694 688.036 145.895 690.272C144.096 692.483 141.804 694.646 139.019 696.76H149V701.826H130.444V697.197Z" fill="url(#paint5_linear_3091_4784)"/>
<path d="M64.9233 701.378C63.1005 701.378 61.6209 700.814 60.4846 699.686C59.3561 698.55 58.7919 697.04 58.7919 695.157V694.807C58.7919 693.547 59.0366 692.422 59.5258 691.434C60.0229 690.438 60.7174 689.664 61.609 689.112C62.5007 688.559 63.495 688.283 64.5919 688.283C66.3358 688.283 67.6812 688.832 68.6282 689.929C69.583 691.026 70.0604 692.578 70.0604 694.586V695.729H61.6919C61.7787 696.772 62.1299 697.597 62.7454 698.204C63.3688 698.81 64.15 699.114 65.089 699.114C66.4068 699.114 67.48 698.589 68.3086 697.538L69.8592 698.997C69.3463 699.752 68.6597 700.339 67.7996 700.76C66.9474 701.172 65.9886 701.378 64.9233 701.378ZM64.58 690.559C63.7909 690.559 63.1518 690.831 62.6625 691.376C62.1812 691.921 61.8734 692.679 61.7393 693.652H67.2196V693.442C67.1565 692.492 66.9 691.777 66.4502 691.294C66.0004 690.804 65.377 690.559 64.58 690.559Z" fill="#1B2055"/>
<path d="M75.8111 692.671L78.2495 688.516H81.4454L77.5274 694.737L81.5756 701.145H78.4033L75.8466 696.826L73.3017 701.145H70.1059L74.154 694.737L70.2479 688.516H73.4201L75.8111 692.671Z" fill="#1B2055"/>
<path d="M93.5287 694.959C93.5287 696.912 93.0789 698.472 92.1793 699.639C91.2797 700.798 90.0724 701.378 88.5573 701.378C87.1527 701.378 86.0282 700.923 85.1838 700.013V706H82.3075V688.516H84.9589L85.0773 689.8C85.9216 688.789 87.0698 688.283 88.5218 688.283C90.0842 688.283 91.3073 688.859 92.1911 690.01C93.0828 691.154 93.5287 692.745 93.5287 694.784V694.959ZM90.6642 694.714C90.6642 693.453 90.4077 692.454 89.8948 691.714C89.3898 690.975 88.6638 690.606 87.7169 690.606C86.5411 690.606 85.6968 691.084 85.1838 692.041V697.643C85.7046 698.624 86.5569 699.114 87.7405 699.114C88.6559 699.114 89.3701 698.752 89.883 698.029C90.4038 697.297 90.6642 696.192 90.6642 694.714Z" fill="#1B2055"/>
<path d="M97.9418 701.145H95.0655V683.218H97.9418V701.145Z" fill="#1B2055"/>
<path d="M103.053 701.145H100.177V688.516H103.053V701.145ZM99.9995 685.237C99.9995 684.801 100.138 684.439 100.414 684.151C100.698 683.864 101.1 683.72 101.621 683.72C102.142 683.72 102.544 683.864 102.828 684.151C103.113 684.439 103.255 684.801 103.255 685.237C103.255 685.665 103.113 686.023 102.828 686.311C102.544 686.591 102.142 686.731 101.621 686.731C101.1 686.731 100.698 686.591 100.414 686.311C100.138 686.023 99.9995 685.665 99.9995 685.237Z" fill="#1B2055"/>
<path d="M110.367 699.114C111.085 699.114 111.68 698.908 112.154 698.495C112.627 698.083 112.88 697.573 112.911 696.966H115.622C115.59 697.752 115.342 698.488 114.876 699.172C114.411 699.849 113.779 700.386 112.982 700.783C112.185 701.18 111.325 701.378 110.402 701.378C108.611 701.378 107.19 700.806 106.141 699.662C105.091 698.519 104.567 696.939 104.567 694.924V694.632C104.567 692.71 105.087 691.174 106.129 690.022C107.171 688.863 108.591 688.283 110.39 688.283C111.913 688.283 113.152 688.723 114.107 689.602C115.07 690.473 115.575 691.621 115.622 693.045H112.911C112.88 692.321 112.627 691.726 112.154 691.259C111.688 690.792 111.092 690.559 110.367 690.559C109.435 690.559 108.717 690.894 108.212 691.563C107.707 692.224 107.451 693.232 107.443 694.586V695.041C107.443 696.41 107.691 697.433 108.189 698.11C108.694 698.779 109.42 699.114 110.367 699.114Z" fill="#1B2055"/>
<path d="M119.763 701.145H116.887V688.516H119.763V701.145ZM116.709 685.237C116.709 684.801 116.847 684.439 117.123 684.151C117.407 683.864 117.81 683.72 118.331 683.72C118.851 683.72 119.254 683.864 119.538 684.151C119.822 684.439 119.964 684.801 119.964 685.237C119.964 685.665 119.822 686.023 119.538 686.311C119.254 686.591 118.851 686.731 118.331 686.731C117.81 686.731 117.407 686.591 117.123 686.311C116.847 686.023 116.709 685.665 116.709 685.237Z" fill="#1B2055"/>
<path d="M125.419 685.447V688.516H127.68V690.617H125.419V697.667C125.419 698.149 125.514 698.499 125.703 698.717C125.9 698.927 126.247 699.032 126.745 699.032C127.076 699.032 127.411 698.993 127.751 698.916V701.11C127.096 701.289 126.464 701.378 125.857 701.378C123.647 701.378 122.543 700.176 122.543 697.772V690.617H120.436V688.516H122.543V685.447H125.419Z" fill="#1B2055"/>
<path d="M53.2639 675.25V699.9V700.896H58.8938V699.9C55.8469 699.638 55.284 697.244 55.284 696.165V676.916H61.5968C64.829 676.916 65.4687 679.898 65.3846 681.475H66.3946V675.25H53.2639Z" fill="#1A237E"/>
<path d="M52.1308 675.25V699.9V700.896H46.5009V699.9C49.5478 699.638 50.1107 697.244 50.1107 696.165V676.916H43.7978C40.5656 676.916 39.9259 679.898 40.0101 681.475H39V675.25H52.1308Z" fill="#42A5F5"/>
</g>
<defs>
<radialGradient id="paint0_radial_3091_4784" cx="0" cy="0" r="1" gradientUnits="userSpaceOnUse" gradientTransform="translate(583 464) scale(445 799.407)">
<stop stop-color="white"/>
<stop offset="1" stop-color="#F0F3F8"/>
</radialGradient>
<linearGradient id="paint1_linear_3091_4784" x1="469.857" y1="-110.276" x2="118.191" y2="294.276" gradientUnits="userSpaceOnUse">
<stop stop-color="#B7C7E7" stop-opacity="0.44"/>
<stop offset="1" stop-color="white" stop-opacity="0"/>
</linearGradient>
<linearGradient id="paint2_linear_3091_4784" x1="1211.26" y1="428.845" x2="822.226" y2="876.329" gradientUnits="userSpaceOnUse">
<stop stop-color="#B7C7E7" stop-opacity="0.26"/>
<stop offset="1" stop-color="white" stop-opacity="0"/>
</linearGradient>
<linearGradient id="paint3_linear_3091_4784" x1="437" y1="2.99935" x2="1307" y2="2.99935" gradientUnits="userSpaceOnUse">
<stop stop-color="#1B7EF1"/>
<stop offset="1" stop-color="#1B7EF1" stop-opacity="0.4"/>
</linearGradient>
<linearGradient id="paint4_linear_3091_4784" x1="110.987" y1="95.993" x2="831.831" y2="95.993" gradientUnits="userSpaceOnUse">
<stop stop-color="#6A7178" stop-opacity="0.74"/>
<stop offset="1" stop-color="#F1F4F8"/>
</linearGradient>
<linearGradient id="paint5_linear_3091_4784" x1="129.002" y1="689.513" x2="157.931" y2="689.513" gradientUnits="userSpaceOnUse">
<stop stop-color="#397AF9"/>
<stop offset="1" stop-color="#2A99F3" stop-opacity="0"/>
</linearGradient>
<clipPath id="clip0_3091_4784">
<rect width="1280" height="730" fill="white"/>
</clipPath>
</defs>
</svg>
